<svg width="20" height="15" viewBox="0 0 20 15" fill="none" xmlns="http://www.w3.org/2000/svg">
<path d="M18.3444 8.2205e-07H13.49C12.6786 -0.000549569 11.8912 0.275294 11.2575 0.782094C10.6238 1.28889 10.1816 1.99642 10.0037 2.78813C9.82551 1.99664 9.38321 1.28937 8.74961 0.782642C8.116 0.275917 7.32881 -9.49821e-05 6.5175 8.2205e-07H1.66687C1.22484 0.00016647 0.800963 0.175836 0.488399 0.4884C0.175835 0.800964 0.000165648 1.22484 0 1.66688V10.2019C0.000165648 10.6439 0.175835 11.0678 0.488399 11.3804C0.800963 11.6929 1.22484 11.8686 1.66687 11.8688H4.78125C8.33 11.8688 9.38875 12.7156 9.89563 14.4731C9.92 14.5706 10.0763 14.5706 10.1038 14.4731C10.6144 12.7163 11.6731 11.8688 15.2181 11.8688H18.3325C18.7745 11.8686 19.1984 11.6929 19.511 11.3804C19.8235 11.0678 19.9992 10.6439 19.9994 10.2019V1.67063C19.9994 1.23009 19.8253 0.807386 19.5151 0.494592C19.2049 0.181799 18.7836 0.00425297 18.3431 0.000625777L18.3444 8.2205e-07ZM8.40313 9.215C8.40329 9.23097 8.40027 9.24681 8.39424 9.2616C8.3882 9.27638 8.37928 9.28982 8.36798 9.30111C8.35669 9.3124 8.34326 9.32133 8.32847 9.32736C8.31369 9.3334 8.29784 9.33642 8.28188 9.33625H2.71562C2.69968 9.33633 2.68387 9.33325 2.66913 9.32719C2.65438 9.32113 2.64098 9.3122 2.6297 9.30092C2.61843 9.28965 2.6095 9.27625 2.60344 9.2615C2.59737 9.24675 2.59429 9.23095 2.59438 9.215V8.42C2.59438 8.35438 2.64625 8.29875 2.71562 8.29875H8.285C8.35063 8.29875 8.40625 8.35063 8.40625 8.42V9.215H8.40313ZM8.40313 7.10063C8.40321 7.11657 8.40013 7.13238 8.39406 7.14712C8.388 7.16187 8.37907 7.17527 8.3678 7.18655C8.35652 7.19782 8.34312 7.20675 8.32837 7.21281C8.31363 7.21888 8.29782 7.22196 8.28188 7.22188H2.71562C2.69968 7.22196 2.68387 7.21888 2.66913 7.21281C2.65438 7.20675 2.64098 7.19782 2.6297 7.18655C2.61843 7.17527 2.6095 7.16187 2.60344 7.14712C2.59737 7.13238 2.59429 7.11657 2.59438 7.10063V6.30563C2.59438 6.23938 2.64625 6.18438 2.71562 6.18438H8.285C8.35063 6.18438 8.40625 6.23625 8.40625 6.30563V7.10063H8.40313ZM8.40313 4.98625C8.40321 5.0022 8.40013 5.018 8.39406 5.03275C8.388 5.0475 8.37907 5.0609 8.3678 5.07217C8.35652 5.08345 8.34312 5.09238 8.32837 5.09844C8.31363 5.1045 8.29782 5.10758 8.28188 5.1075H2.71562C2.69968 5.10758 2.68387 5.1045 2.66913 5.09844C2.65438 5.09238 2.64098 5.08345 2.6297 5.07217C2.61843 5.0609 2.6095 5.0475 2.60344 5.03275C2.59737 5.018 2.59429 5.0022 2.59438 4.98625V4.19125C2.59438 4.12563 2.64625 4.07 2.71562 4.07H8.285C8.35063 4.07 8.40625 4.12188 8.40625 4.19125V4.98625H8.40313ZM17.4069 9.21188C17.407 9.22782 17.4039 9.24363 17.3978 9.25837C17.3918 9.27312 17.3828 9.28652 17.3715 9.2978C17.3603 9.30907 17.3469 9.318 17.3321 9.32407C17.3174 9.33013 17.3016 9.33321 17.2856 9.33313H11.7194C11.7034 9.33321 11.6876 9.33013 11.6729 9.32407C11.6581 9.318 11.6447 9.30907 11.6335 9.2978C11.6222 9.28652 11.6132 9.27312 11.6072 9.25837C11.6011 9.24363 11.598 9.22782 11.5981 9.21188V8.41687C11.5981 8.35125 11.65 8.29563 11.7194 8.29563H17.2887C17.355 8.29563 17.41 8.3475 17.41 8.41687V9.21188H17.4069ZM17.4069 7.0975C17.407 7.11347 17.404 7.12931 17.398 7.1441C17.392 7.15888 17.383 7.17232 17.3717 7.18361C17.3604 7.1949 17.347 7.20383 17.3322 7.20986C17.3174 7.2159 17.3016 7.21892 17.2856 7.21875H11.7194C11.7034 7.21883 11.6876 7.21575 11.6729 7.20969C11.6581 7.20363 11.6447 7.1947 11.6335 7.18342C11.6222 7.17215 11.6132 7.15875 11.6072 7.144C11.6011 7.12925 11.598 7.11345 11.5981 7.0975V6.3025C11.5981 6.23688 11.65 6.18125 11.7194 6.18125H17.2887C17.355 6.18125 17.41 6.23313 17.41 6.3025V7.0975H17.4069ZM17.4069 4.9825C17.407 4.99845 17.4039 5.01425 17.3978 5.029C17.3918 5.04375 17.3828 5.05715 17.3715 5.06842C17.3603 5.0797 17.3469 5.08863 17.3321 5.09469C17.3174 5.10075 17.3016 5.10383 17.2856 5.10375H11.7194C11.7034 5.10383 11.6876 5.10075 11.6729 5.09469C11.6581 5.08863 11.6447 5.0797 11.6335 5.06842C11.6222 5.05715 11.6132 5.04375 11.6072 5.029C11.6011 5.01425 11.598 4.99845 11.5981 4.9825V4.19063C11.5981 4.125 11.65 4.06938 11.7194 4.06938H17.2887C17.355 4.06938 17.41 4.12125 17.41 4.19063V4.9825H17.4069Z" fill="white"/>
</svg>
